<svg width="48" height="48" viewBox="0 0 48 48" fill="none" xmlns="http://www.w3.org/2000/svg">
<rect width="48" height="48" rx="24" fill="#F5FAFF"/>
<path d="M27.8971 17.4507L25.1472 12.6638C24.6366 11.775 23.3558 11.7707 22.8393 12.6561L19.9375 17.6306C19.5532 18.2895 18.9051 18.7523 18.1571 18.9019L14.1921 19.6948C13.1652 19.9002 12.7651 21.155 13.4835 21.917L16.3513 24.9585C16.9645 25.6089 17.2111 26.5233 17.008 27.3939L15.7099 32.9569C15.4431 34.1005 16.6779 35.0056 17.6881 34.4069L22.6404 31.4722C23.4786 30.9755 24.5211 30.9755 25.3593 31.4722L30.3116 34.4069C31.3219 35.0056 32.5567 34.1005 32.2898 32.9569L30.9804 27.3451C30.7836 26.5016 31.0087 25.615 31.5842 24.9676L34.4555 21.7373C35.1397 20.9677 34.7302 19.746 33.7205 19.5441L29.6864 18.7373C28.9324 18.5865 28.2802 18.1175 27.8971 17.4507Z" stroke="#437EF7" stroke-width="2" stroke-miterlimit="10"/>
</svg>
