<svg width="48" height="48" viewBox="0 0 48 48" fill="none" xmlns="http://www.w3.org/2000/svg">
<rect width="48" height="48" rx="24" fill="#F5FAFF"/>
<path d="M24.0007 38.6668C32.1008 38.6668 38.6673 32.1003 38.6673 24.0002C38.6673 15.9 32.1008 9.3335 24.0007 9.3335M24.0007 38.6668C15.9005 38.6668 9.33398 32.1003 9.33398 24.0002C9.33398 15.9 15.9005 9.3335 24.0007 9.3335M24.0007 38.6668C26.9462 38.6668 29.334 32.1003 29.334 24.0002C29.334 15.9 26.9462 9.3335 24.0007 9.3335M24.0007 38.6668C21.0551 38.6668 18.6673 32.1003 18.6673 24.0002C18.6673 15.9 21.0551 9.3335 24.0007 9.3335M10.6673 18.6668H37.334M10.6673 28.0002H37.334" stroke="#437EF7" stroke-width="2" stroke-linecap="round"/>
</svg>
